<?xml version="1.0" standalone="no"?>
<!DOCTYPE svg PUBLIC "-//W3C//DTD SVG 20010904//EN"
 "http://www.w3.org/TR/2001/REC-SVG-20010904/DTD/svg10.dtd">
<svg version="1.0" xmlns="http://www.w3.org/2000/svg"
 width="64.000000pt" height="64.000000pt" viewBox="0 0 64.000000 64.000000"
 preserveAspectRatio="xMidYMid meet">

<g transform="translate(0.000000,64.000000) scale(0.100000,-0.100000)"
fill="#000000" stroke="none">
<path d="M257 609 c-215 -33 -305 -303 -158 -472 79 -90 224 -117 335 -63 102
50 158 140 158 256 0 182 -150 307 -335 279z m163 -30 c171 -77 215 -302 87
-438 -103 -108 -291 -108 -394 0 -101 107 -97 286 8 386 77 73 205 95 299 52z"/>
<path d="M306 553 c-10 -10 -7 -43 4 -43 6 0 10 7 10 16 0 14 7 15 37 11 53
-9 112 -54 141 -107 34 -64 29 -159 -12 -221 -16 -24 -22 -38 -12 -30 33 28
59 94 59 151 0 86 -49 164 -128 202 -36 18 -90 29 -99 21z"/>
<path d="M138 473 c-54 -62 -68 -166 -30 -239 11 -22 28 -47 38 -55 10 -8 4 6
-12 30 -26 39 -29 53 -29 121 0 67 4 82 28 118 29 44 31 54 5 25z"/>
<path d="M300 466 c0 -9 5 -16 10 -16 6 0 10 4 10 9 0 6 -4 13 -10 16 -5 3
-10 -1 -10 -9z"/>
<path d="M238 397 c29 -29 52 -60 52 -70 0 -10 8 -17 20 -17 13 0 20 7 20 20
0 11 -5 20 -11 20 -5 0 -34 23 -63 50 -70 66 -84 64 -18 -3z"/>
<path d="M205 149 c-4 -6 -5 -12 -2 -15 2 -3 7 2 10 11 7 17 1 20 -8 4z"/>
<path d="M406 147 c3 -10 9 -15 12 -12 3 3 0 11 -7 18 -10 9 -11 8 -5 -6z"/>
<path d="M251 124 c0 -11 3 -14 6 -6 3 7 2 16 -1 19 -3 4 -6 -2 -5 -13z"/>
<path d="M361 124 c0 -11 3 -14 6 -6 3 7 2 16 -1 19 -3 4 -6 -2 -5 -13z"/>
<path d="M300 120 c0 -5 5 -10 10 -10 6 0 10 5 10 10 0 6 -4 10 -10 10 -5 0
-10 -4 -10 -10z"/>
</g>
</svg>
